<svg xmlns="http://www.w3.org/2000/svg" xmlns:xlink="http://www.w3.org/1999/xlink" width="109" zoomAndPan="magnify" viewBox="0 0 81.75 30.000001" height="40" preserveAspectRatio="xMidYMid meet" version="1.0"><defs><g/><clipPath id="735ea9bf0b"><path d="M 1.199219 0 L 30.230469 0 L 30.230469 29.03125 L 1.199219 29.03125 Z M 1.199219 0 " clip-rule="nonzero"/></clipPath><clipPath id="7228772fcc"><path d="M 13 0 L 30.230469 0 L 30.230469 27 L 13 27 Z M 13 0 " clip-rule="nonzero"/></clipPath><clipPath id="e09389c056"><path d="M 1.199219 7 L 16 7 L 16 29.03125 L 1.199219 29.03125 Z M 1.199219 7 " clip-rule="nonzero"/></clipPath><clipPath id="dbabc64e58"><path d="M 1.199219 0 L 18 0 L 18 29.03125 L 1.199219 29.03125 Z M 1.199219 0 " clip-rule="nonzero"/></clipPath></defs><g clip-path="url(#735ea9bf0b)"><path fill="#649e33" d="M 30.234375 14.808594 C 30.234375 19.941406 27.082031 23.886719 23.363281 26.941406 C 20.824219 29.03125 18.613281 29.03125 15.863281 29.03125 C 7.925781 29.03125 2.851562 22.808594 1.785156 15.023438 C 1.203125 10.765625 3.375 6.75 6.359375 4.140625 C 8.890625 1.929688 11.777344 0.0078125 15.863281 0.585938 C 20.496094 1.238281 24.703125 2.800781 27.324219 6.230469 C 29.152344 8.613281 30.234375 11.585938 30.234375 14.808594 " fill-opacity="1" fill-rule="nonzero"/></g><path fill="#458030" d="M 29.574219 14.808594 C 29.574219 22.183594 23.4375 28.164062 15.863281 28.164062 C 8.289062 28.164062 2.152344 22.183594 2.152344 14.808594 C 2.152344 7.429688 8.289062 1.449219 15.863281 1.449219 C 23.4375 1.449219 29.574219 7.429688 29.574219 14.808594 " fill-opacity="1" fill-rule="nonzero"/><path fill="#f8f9be" d="M 28.96875 14.808594 C 28.96875 21.972656 23.101562 27.78125 15.863281 27.78125 C 8.625 27.78125 2.757812 21.972656 2.757812 14.808594 C 2.757812 7.644531 8.625 1.835938 15.863281 1.835938 C 23.101562 1.835938 28.96875 7.644531 28.96875 14.808594 " fill-opacity="1" fill-rule="nonzero"/><path fill="#bfcf1b" d="M 14.976562 3.597656 C 13.03125 2.445312 9.492188 3.464844 8.957031 6.210938 C 9.25 7.171875 13.566406 11.589844 14.5 13.09375 C 14.789062 13.328125 15.207031 13.34375 15.351562 12.816406 C 15.21875 10.636719 15.226562 3.742188 14.976562 3.597656 " fill-opacity="1" fill-rule="nonzero"/><path fill="#dbdf18" d="M 14.949219 13.191406 C 14.859375 13.191406 14.769531 13.15625 14.691406 13.09375 C 14.089844 12.121094 12.84375 8.96875 12.652344 8.347656 C 12.175781 7.011719 12.523438 6.25 13.074219 6.25 C 13.492188 6.25 14.027344 6.691406 14.40625 7.660156 C 14.472656 7.832031 15.15625 11.503906 15.242188 12.914062 C 15.1875 13.113281 15.070312 13.191406 14.949219 13.191406 " fill-opacity="1" fill-rule="nonzero"/><path fill="#bfcf1b" d="M 8.148438 6.464844 C 5.914062 6.851562 3.589844 10.300781 5 12.722656 C 5.855469 13.261719 12.039062 13.808594 13.738281 14.339844 C 14.113281 14.332031 14.441406 14.074219 14.203125 13.582031 C 12.660156 12.019531 8.433594 6.414062 8.148438 6.464844 " fill-opacity="1" fill-rule="nonzero"/><path fill="#bfcf1b" d="M 4.554688 13.4375 C 3.117188 15.175781 3.640625 19.289062 6.304688 20.210938 C 7.308594 20.066406 12.347656 16.476562 13.988281 15.777344 C 14.265625 15.53125 14.34375 15.125 13.835938 14.90625 C 11.636719 14.71875 4.734375 13.214844 4.554688 13.4375 " fill-opacity="1" fill-rule="nonzero"/><path fill="#bfcf1b" d="M 6.441406 21.042969 C 6.503906 23.285156 9.617188 26.058594 12.242188 25.03125 C 12.902344 24.269531 14.347656 18.292969 15.125 16.703125 C 15.171875 16.339844 14.960938 15.980469 14.433594 16.144531 C 12.648438 17.425781 6.433594 20.753906 6.441406 21.042969 " fill-opacity="1" fill-rule="nonzero"/><path fill="#bfcf1b" d="M 12.894531 25.570312 C 14.421875 27.230469 18.609375 27.3125 19.917969 24.835938 C 19.914062 23.832031 17.058594 18.375 16.597656 16.667969 C 16.390625 16.363281 15.996094 16.226562 15.703125 16.695312 C 15.199219 18.816406 12.695312 25.363281 12.894531 25.570312 " fill-opacity="1" fill-rule="nonzero"/><path fill="#bfcf1b" d="M 20.765625 24.824219 C 23.019531 25.085938 26.242188 22.441406 25.59375 19.722656 C 24.929688 18.960938 19.164062 16.683594 17.691406 15.691406 C 17.332031 15.59375 16.941406 15.746094 17.027344 16.289062 C 18.050781 18.21875 20.480469 24.792969 20.765625 24.824219 " fill-opacity="1" fill-rule="nonzero"/><path fill="#bfcf1b" d="M 26.226562 19.160156 C 28.109375 17.902344 28.796875 13.816406 26.511719 12.175781 C 25.507812 12.03125 19.640625 14.039062 17.867188 14.242188 C 17.53125 14.402344 17.339844 14.769531 17.761719 15.125 C 19.8125 15.921875 25.992188 19.324219 26.226562 19.160156 " fill-opacity="1" fill-rule="nonzero"/><path fill="#bfcf1b" d="M 26.621094 11.339844 C 27.210938 9.175781 25.035156 5.632812 22.222656 5.875 C 21.363281 6.414062 18.253906 11.730469 17.046875 13.03125 C 16.898438 13.371094 16.992188 13.773438 17.546875 13.765625 C 19.628906 13.042969 26.546875 11.617188 26.621094 11.339844 " fill-opacity="1" fill-rule="nonzero"/><path fill="#bfcf1b" d="M 21.753906 5.171875 C 20.765625 3.148438 17.601562 1.847656 15.632812 3.851562 C 15.34375 4.816406 15.675781 10.882812 15.625 12.648438 C 15.734375 13 16.074219 13.242188 16.488281 12.878906 C 17.585938 10.988281 21.878906 5.429688 21.753906 5.171875 " fill-opacity="1" fill-rule="nonzero"/><path fill="#f8f9be" d="M 16.105469 14.777344 L 16.011719 14.777344 L 16.105469 14.871094 Z M 16.105469 14.777344 " fill-opacity="1" fill-rule="nonzero"/><path fill="#dbdf18" d="M 13.882812 14.25 C 13.878906 14.25 13.875 14.25 13.871094 14.25 C 12.789062 13.859375 9.839844 12.144531 9.304688 11.769531 C 7.730469 10.785156 7.863281 9.707031 8.882812 9.707031 C 9.238281 9.707031 9.707031 9.839844 10.25 10.160156 C 10.410156 10.253906 13.246094 12.71875 14.191406 13.773438 C 14.332031 14.09375 14.121094 14.25 13.882812 14.25 " fill-opacity="1" fill-rule="nonzero"/><path fill="#dbdf18" d="M 8.257812 16.894531 C 6.390625 16.894531 6.386719 15.402344 8.550781 15.011719 C 8.59375 15.003906 8.828125 15 9.183594 15 C 10.359375 15 12.835938 15.050781 13.917969 15.1875 C 14.242188 15.34375 14.179688 15.605469 13.992188 15.757812 C 12.914062 16.164062 9.554688 16.777344 8.898438 16.84375 C 8.667969 16.878906 8.453125 16.894531 8.257812 16.894531 " fill-opacity="1" fill-rule="nonzero"/><path fill="#fafbcc" d="M 15.039062 16.890625 C 15.054688 16.855469 15.070312 16.824219 15.085938 16.792969 C 15.082031 16.800781 15.082031 16.808594 15.082031 16.816406 C 15.070312 16.839844 15.054688 16.863281 15.039062 16.890625 " fill-opacity="1" fill-rule="nonzero"/><path fill="#dbdf18" d="M 10.421875 21.902344 C 9.714844 21.902344 9.5 20.984375 10.476562 19.785156 C 10.59375 19.640625 13.460938 17.214844 14.648438 16.4375 C 14.699219 16.421875 14.746094 16.417969 14.789062 16.417969 C 15.019531 16.417969 15.105469 16.601562 15.085938 16.792969 C 15.070312 16.824219 15.054688 16.855469 15.039062 16.890625 C 14.4375 17.941406 12.390625 20.480469 11.953125 20.941406 C 11.367188 21.617188 10.820312 21.902344 10.421875 21.902344 " fill-opacity="1" fill-rule="nonzero"/><path fill="#dbdf18" d="M 16.058594 23.933594 C 15.601562 23.933594 15.132812 23.332031 15.085938 22.140625 C 15.082031 21.957031 15.644531 18.265625 16.027344 16.90625 C 16.117188 16.773438 16.214844 16.722656 16.3125 16.722656 C 16.425781 16.722656 16.535156 16.800781 16.605469 16.914062 C 16.855469 18.027344 16.996094 21.410156 16.96875 22.058594 C 16.976562 23.3125 16.523438 23.933594 16.058594 23.933594 " fill-opacity="1" fill-rule="nonzero"/><path fill="#dbdf18" d="M 21.632812 21.796875 C 21.242188 21.796875 20.703125 21.539062 20.132812 20.933594 C 20.003906 20.796875 17.988281 17.640625 17.375 16.367188 C 17.34375 16.089844 17.496094 15.976562 17.675781 15.976562 C 17.722656 15.976562 17.769531 15.984375 17.820312 16 C 18.746094 16.679688 21.089844 19.144531 21.496094 19.652344 C 22.585938 20.875 22.375 21.796875 21.632812 21.796875 " fill-opacity="1" fill-rule="nonzero"/><path fill="#dbdf18" d="M 23.59375 16.773438 C 23.453125 16.773438 23.304688 16.765625 23.144531 16.75 C 22.957031 16.730469 19.347656 15.652344 18.042969 15.085938 C 17.777344 14.84375 17.910156 14.613281 18.132812 14.519531 C 18.261719 14.507812 18.414062 14.503906 18.59375 14.503906 C 20.003906 14.503906 22.753906 14.789062 23.328125 14.894531 C 25.65625 15.207031 25.578125 16.773438 23.59375 16.773438 " fill-opacity="1" fill-rule="nonzero"/><path fill="#dbdf18" d="M 17.695312 13.683594 C 17.335938 13.675781 17.285156 13.414062 17.390625 13.199219 C 18.199219 12.386719 21 10.441406 21.5625 10.113281 C 22.148438 9.734375 22.644531 9.578125 23.015625 9.578125 C 23.980469 9.578125 24.089844 10.644531 22.652344 11.632812 C 22.5 11.742188 19.058594 13.269531 17.695312 13.683594 " fill-opacity="1" fill-rule="nonzero"/><path fill="#fafbcc" d="M 16.503906 12.855469 C 16.558594 12.765625 16.617188 12.667969 16.679688 12.566406 C 16.617188 12.671875 16.5625 12.765625 16.507812 12.851562 C 16.507812 12.851562 16.503906 12.851562 16.503906 12.855469 " fill-opacity="1" fill-rule="nonzero"/><path fill="#dbdf18" d="M 16.253906 12.957031 C 16.105469 12.957031 15.996094 12.835938 15.953125 12.683594 C 16.03125 11.542969 16.859375 8.257812 17.066406 7.644531 C 17.378906 6.566406 17.898438 6.078125 18.324219 6.078125 C 18.847656 6.078125 19.222656 6.808594 18.898438 8.089844 C 18.855469 8.253906 17.480469 11.191406 16.679688 12.566406 C 16.617188 12.667969 16.558594 12.765625 16.503906 12.855469 C 16.414062 12.929688 16.328125 12.957031 16.253906 12.957031 " fill-opacity="1" fill-rule="nonzero"/><path fill="#ffffff" d="M 11.246094 7.046875 C 11.15625 6.972656 10.140625 6.152344 10.511719 6.011719 C 10.855469 5.882812 11.296875 6.878906 11.246094 7.046875 " fill-opacity="1" fill-rule="nonzero"/><path fill="#ffffff" d="M 12.34375 6.574219 C 12.25 6.363281 11.453125 4.636719 12.074219 4.644531 C 12.582031 4.648438 12.578125 6.476562 12.34375 6.574219 " fill-opacity="1" fill-rule="nonzero"/><path fill="#ffffff" d="M 13.757812 6.058594 C 13.644531 5.910156 12.820312 4.9375 13.253906 4.761719 C 13.613281 4.617188 13.832031 5.9375 13.757812 6.058594 " fill-opacity="1" fill-rule="nonzero"/><path fill="#ffffff" d="M 11.945312 7.042969 C 11.898438 6.96875 11.453125 6.316406 11.710938 6.269531 C 11.960938 6.226562 11.964844 6.953125 11.945312 7.042969 " fill-opacity="1" fill-rule="nonzero"/><path fill="#ffffff" d="M 14.871094 12.050781 C 14.777344 11.980469 13.765625 11.160156 14.132812 11.019531 C 14.476562 10.886719 14.917969 11.886719 14.871094 12.050781 " fill-opacity="1" fill-rule="nonzero"/><path fill="#ffffff" d="M 13.316406 8.476562 C 13.222656 8.265625 12.425781 6.539062 13.050781 6.542969 C 13.554688 6.550781 13.550781 8.378906 13.316406 8.476562 " fill-opacity="1" fill-rule="nonzero"/><path fill="#ffffff" d="M 12.078125 9.703125 C 11.980469 9.492188 11.1875 7.765625 11.808594 7.773438 C 12.316406 7.777344 12.3125 9.605469 12.078125 9.703125 " fill-opacity="1" fill-rule="nonzero"/><path fill="#ffffff" d="M 14.730469 7.960938 C 14.617188 7.8125 13.792969 6.835938 14.222656 6.664062 C 14.585938 6.515625 14.804688 7.839844 14.730469 7.960938 " fill-opacity="1" fill-rule="nonzero"/><path fill="#ffffff" d="M 13.890625 10.144531 C 13.84375 10.074219 13.398438 9.417969 13.652344 9.375 C 13.90625 9.332031 13.910156 10.058594 13.890625 10.144531 " fill-opacity="1" fill-rule="nonzero"/><path fill="#ffffff" d="M 14.328125 9.015625 C 14.28125 8.941406 13.835938 8.289062 14.089844 8.242188 C 14.34375 8.199219 14.347656 8.929688 14.328125 9.015625 " fill-opacity="1" fill-rule="nonzero"/><path fill="#ffffff" d="M 8.40625 9.636719 C 8.339844 9.539062 7.597656 8.476562 7.425781 8.828125 C 7.265625 9.15625 8.234375 9.671875 8.40625 9.636719 " fill-opacity="1" fill-rule="nonzero"/><path fill="#ffffff" d="M 7.839844 10.683594 C 7.636719 10.570312 5.964844 9.648438 5.921875 10.261719 C 5.882812 10.761719 7.726562 10.90625 7.839844 10.683594 " fill-opacity="1" fill-rule="nonzero"/><path fill="#ffffff" d="M 7.207031 12.035156 C 7.070312 11.914062 6.152344 11.019531 5.945312 11.429688 C 5.765625 11.773438 7.082031 12.101562 7.207031 12.035156 " fill-opacity="1" fill-rule="nonzero"/><path fill="#ffffff" d="M 8.34375 10.328125 C 8.273438 10.273438 7.652344 9.78125 7.585938 10.03125 C 7.523438 10.277344 8.257812 10.339844 8.34375 10.328125 " fill-opacity="1" fill-rule="nonzero"/><path fill="#ffffff" d="M 13.152344 13.617188 C 13.085938 13.519531 12.34375 12.457031 12.171875 12.808594 C 12.011719 13.136719 12.980469 13.652344 13.152344 13.617188 " fill-opacity="1" fill-rule="nonzero"/><path fill="#ffffff" d="M 9.675781 11.796875 C 9.472656 11.683594 7.800781 10.761719 7.753906 11.375 C 7.71875 11.875 9.5625 12.019531 9.675781 11.796875 " fill-opacity="1" fill-rule="nonzero"/><path fill="#ffffff" d="M 11.015625 10.671875 C 10.808594 10.5625 9.136719 9.636719 9.089844 10.25 C 9.054688 10.753906 10.898438 10.898438 11.015625 10.671875 " fill-opacity="1" fill-rule="nonzero"/><path fill="#ffffff" d="M 9.042969 13.148438 C 8.90625 13.027344 7.988281 12.132812 7.777344 12.546875 C 7.601562 12.890625 8.917969 13.214844 9.042969 13.148438 " fill-opacity="1" fill-rule="nonzero"/><path fill="#ffffff" d="M 11.3125 12.496094 C 11.242188 12.445312 10.621094 11.953125 10.554688 12.203125 C 10.492188 12.445312 11.222656 12.507812 11.3125 12.496094 " fill-opacity="1" fill-rule="nonzero"/><path fill="#ffffff" d="M 10.140625 12.835938 C 10.070312 12.785156 9.449219 12.292969 9.382812 12.542969 C 9.316406 12.785156 10.050781 12.847656 10.140625 12.835938 " fill-opacity="1" fill-rule="nonzero"/><path fill="#ffffff" d="M 7.660156 18.328125 C 7.578125 18.410156 6.664062 19.335938 6.554688 18.960938 C 6.453125 18.613281 7.496094 18.265625 7.660156 18.328125 " fill-opacity="1" fill-rule="nonzero"/><path fill="#ffffff" d="M 7.28125 17.203125 C 7.058594 17.277344 5.253906 17.910156 5.3125 17.296875 C 5.363281 16.796875 7.203125 16.964844 7.28125 17.203125 " fill-opacity="1" fill-rule="nonzero"/><path fill="#ffffff" d="M 6.886719 15.765625 C 6.730469 15.863281 5.675781 16.585938 5.539062 16.148438 C 5.421875 15.777344 6.773438 15.679688 6.886719 15.765625 " fill-opacity="1" fill-rule="nonzero"/><path fill="#ffffff" d="M 7.714844 17.636719 C 7.636719 17.679688 6.941406 18.058594 6.917969 17.804688 C 6.898438 17.550781 7.628906 17.613281 7.714844 17.636719 " fill-opacity="1" fill-rule="nonzero"/><path fill="#ffffff" d="M 13.015625 15.199219 C 12.933594 15.285156 12.019531 16.210938 11.910156 15.832031 C 11.808594 15.484375 12.855469 15.136719 13.015625 15.199219 " fill-opacity="1" fill-rule="nonzero"/><path fill="#ffffff" d="M 9.28125 16.414062 C 9.058594 16.488281 7.253906 17.117188 7.3125 16.507812 C 7.363281 16.007812 9.203125 16.171875 9.28125 16.414062 " fill-opacity="1" fill-rule="nonzero"/><path fill="#ffffff" d="M 10.40625 17.746094 C 10.183594 17.820312 8.378906 18.449219 8.4375 17.835938 C 8.488281 17.335938 10.328125 17.503906 10.40625 17.746094 " fill-opacity="1" fill-rule="nonzero"/><path fill="#ffffff" d="M 8.886719 14.972656 C 8.730469 15.070312 7.675781 15.796875 7.539062 15.355469 C 7.421875 14.988281 8.773438 14.890625 8.886719 14.972656 " fill-opacity="1" fill-rule="nonzero"/><path fill="#ffffff" d="M 11.011719 15.996094 C 10.933594 16.035156 10.238281 16.417969 10.214844 16.160156 C 10.191406 15.90625 10.925781 15.96875 11.011719 15.996094 " fill-opacity="1" fill-rule="nonzero"/><path fill="#ffffff" d="M 9.914062 15.464844 C 9.835938 15.503906 9.140625 15.886719 9.117188 15.628906 C 9.09375 15.375 9.828125 15.4375 9.914062 15.464844 " fill-opacity="1" fill-rule="nonzero"/><path fill="#ffffff" d="M 9.714844 21.097656 C 9.609375 21.148438 8.441406 21.734375 8.773438 21.953125 C 9.078125 22.152344 9.726562 21.269531 9.714844 21.097656 " fill-opacity="1" fill-rule="nonzero"/><path fill="#ffffff" d="M 10.683594 21.789062 C 10.546875 21.976562 9.398438 23.496094 10.007812 23.621094 C 10.503906 23.722656 10.894531 21.933594 10.683594 21.789062 " fill-opacity="1" fill-rule="nonzero"/><path fill="#ffffff" d="M 11.953125 22.59375 C 11.8125 22.710938 10.796875 23.492188 11.179688 23.753906 C 11.5 23.972656 12.003906 22.726562 11.953125 22.59375 " fill-opacity="1" fill-rule="nonzero"/><path fill="#ffffff" d="M 10.394531 21.25 C 10.332031 21.3125 9.757812 21.855469 10 21.953125 C 10.234375 22.050781 10.394531 21.339844 10.394531 21.25 " fill-opacity="1" fill-rule="nonzero"/><path fill="#ffffff" d="M 14.332031 16.972656 C 14.226562 17.023438 13.0625 17.609375 13.390625 17.828125 C 13.699219 18.027344 14.34375 17.144531 14.332031 16.972656 " fill-opacity="1" fill-rule="nonzero"/><path fill="#ffffff" d="M 12.042969 20.140625 C 11.90625 20.324219 10.757812 21.84375 11.367188 21.96875 C 11.863281 22.070312 12.253906 20.28125 12.042969 20.140625 " fill-opacity="1" fill-rule="nonzero"/><path fill="#ffffff" d="M 11.097656 18.679688 C 10.960938 18.863281 9.8125 20.382812 10.417969 20.507812 C 10.917969 20.609375 11.304688 18.820312 11.097656 18.679688 " fill-opacity="1" fill-rule="nonzero"/><path fill="#ffffff" d="M 13.3125 20.941406 C 13.171875 21.058594 12.15625 21.839844 12.539062 22.101562 C 12.863281 22.320312 13.363281 21.074219 13.3125 20.941406 " fill-opacity="1" fill-rule="nonzero"/><path fill="#ffffff" d="M 12.964844 18.628906 C 12.902344 18.6875 12.328125 19.234375 12.570312 19.332031 C 12.804688 19.429688 12.964844 18.714844 12.964844 18.628906 " fill-opacity="1" fill-rule="nonzero"/><path fill="#ffffff" d="M 13.148438 19.824219 C 13.085938 19.886719 12.511719 20.429688 12.753906 20.527344 C 12.988281 20.625 13.148438 19.914062 13.148438 19.824219 " fill-opacity="1" fill-rule="nonzero"/><path fill="#ffffff" d="M 18.019531 23.078125 C 18.089844 23.171875 18.859375 24.21875 18.464844 24.261719 C 18.101562 24.300781 17.929688 23.226562 18.019531 23.078125 " fill-opacity="1" fill-rule="nonzero"/><path fill="#ffffff" d="M 16.839844 23.257812 C 16.875 23.484375 17.199219 25.351562 16.601562 25.191406 C 16.113281 25.058594 16.585938 23.289062 16.839844 23.257812 " fill-opacity="1" fill-rule="nonzero"/><path fill="#ffffff" d="M 15.339844 23.398438 C 15.410156 23.570312 15.957031 24.71875 15.496094 24.78125 C 15.109375 24.832031 15.234375 23.496094 15.339844 23.398438 " fill-opacity="1" fill-rule="nonzero"/><path fill="#ffffff" d="M 17.34375 22.90625 C 17.371094 22.988281 17.632812 23.730469 17.375 23.710938 C 17.121094 23.691406 17.304688 22.984375 17.34375 22.90625 " fill-opacity="1" fill-rule="nonzero"/><path fill="#ffffff" d="M 15.804688 17.324219 C 15.875 17.417969 16.644531 18.464844 16.25 18.507812 C 15.882812 18.546875 15.714844 17.472656 15.804688 17.324219 " fill-opacity="1" fill-rule="nonzero"/><path fill="#ffffff" d="M 16.386719 21.171875 C 16.421875 21.402344 16.75 23.269531 16.148438 23.109375 C 15.660156 22.976562 16.132812 21.207031 16.386719 21.171875 " fill-opacity="1" fill-rule="nonzero"/><path fill="#ffffff" d="M 17.902344 20.296875 C 17.9375 20.527344 18.261719 22.394531 17.664062 22.234375 C 17.175781 22.101562 17.648438 20.332031 17.902344 20.296875 " fill-opacity="1" fill-rule="nonzero"/><path fill="#ffffff" d="M 14.886719 21.316406 C 14.957031 21.484375 15.503906 22.636719 15.042969 22.695312 C 14.65625 22.746094 14.785156 21.414062 14.886719 21.316406 " fill-opacity="1" fill-rule="nonzero"/><path fill="#ffffff" d="M 16.261719 19.414062 C 16.289062 19.496094 16.550781 20.238281 16.292969 20.21875 C 16.035156 20.199219 16.222656 19.492188 16.261719 19.414062 " fill-opacity="1" fill-rule="nonzero"/><path fill="#ffffff" d="M 15.546875 20.398438 C 15.574219 20.480469 15.835938 21.222656 15.578125 21.203125 C 15.324219 21.179688 15.507812 20.476562 15.546875 20.398438 " fill-opacity="1" fill-rule="nonzero"/><path fill="#ffffff" d="M 21.011719 21.621094 C 21.042969 21.734375 21.414062 22.976562 21.6875 22.691406 C 21.941406 22.429688 21.1875 21.640625 21.011719 21.621094 " fill-opacity="1" fill-rule="nonzero"/><path fill="#ffffff" d="M 21.878906 20.804688 C 22.039062 20.972656 23.335938 22.367188 23.570312 21.800781 C 23.761719 21.335938 22.058594 20.625 21.878906 20.804688 " fill-opacity="1" fill-rule="nonzero"/><path fill="#ffffff" d="M 22.90625 19.714844 C 23 19.875 23.589844 21.003906 23.917969 20.679688 C 24.195312 20.410156 23.046875 19.691406 22.90625 19.714844 " fill-opacity="1" fill-rule="nonzero"/><path fill="#ffffff" d="M 21.289062 20.984375 C 21.335938 21.058594 21.773438 21.71875 21.914062 21.5 C 22.054688 21.289062 21.375 21.003906 21.289062 20.984375 " fill-opacity="1" fill-rule="nonzero"/><path fill="#ffffff" d="M 17.761719 16.371094 C 17.792969 16.480469 18.164062 17.722656 18.4375 17.441406 C 18.695312 17.179688 17.9375 16.390625 17.761719 16.371094 " fill-opacity="1" fill-rule="nonzero"/><path fill="#ffffff" d="M 20.488281 19.175781 C 20.648438 19.34375 21.945312 20.742188 22.179688 20.171875 C 22.371094 19.707031 20.667969 19 20.488281 19.175781 " fill-opacity="1" fill-rule="nonzero"/><path fill="#ffffff" d="M 18.863281 19.832031 C 19.023438 20 20.320312 21.394531 20.554688 20.824219 C 20.746094 20.359375 19.042969 19.652344 18.863281 19.832031 " fill-opacity="1" fill-rule="nonzero"/><path fill="#ffffff" d="M 21.515625 18.089844 C 21.609375 18.25 22.195312 19.378906 22.527344 19.054688 C 22.804688 18.78125 21.65625 18.066406 21.515625 18.089844 " fill-opacity="1" fill-rule="nonzero"/><path fill="#ffffff" d="M 19.15625 18.003906 C 19.203125 18.078125 19.640625 18.734375 19.78125 18.519531 C 19.921875 18.308594 19.242188 18.019531 19.15625 18.003906 " fill-opacity="1" fill-rule="nonzero"/><path fill="#ffffff" d="M 20.378906 18.042969 C 20.429688 18.117188 20.863281 18.777344 21.003906 18.558594 C 21.144531 18.347656 20.464844 18.0625 20.378906 18.042969 " fill-opacity="1" fill-rule="nonzero"/><path fill="#ffffff" d="M 24.523438 14.234375 C 24.628906 14.183594 25.832031 13.675781 25.789062 14.0625 C 25.746094 14.425781 24.648438 14.351562 24.523438 14.234375 " fill-opacity="1" fill-rule="nonzero"/><path fill="#ffffff" d="M 24.4375 15.414062 C 24.671875 15.429688 26.585938 15.527344 26.292969 16.070312 C 26.054688 16.511719 24.417969 15.664062 24.4375 15.414062 " fill-opacity="1" fill-rule="nonzero"/><path fill="#ffffff" d="M 24.25 16.894531 C 24.433594 16.863281 25.6875 16.589844 25.644531 17.046875 C 25.609375 17.429688 24.320312 17.015625 24.25 16.894531 " fill-opacity="1" fill-rule="nonzero"/><path fill="#ffffff" d="M 24.203125 14.847656 C 24.292969 14.839844 25.082031 14.75 25.003906 14.996094 C 24.929688 15.238281 24.273438 14.902344 24.203125 14.847656 " fill-opacity="1" fill-rule="nonzero"/><path fill="#ffffff" d="M 18.363281 15.105469 C 18.472656 15.054688 19.671875 14.546875 19.628906 14.933594 C 19.589844 15.296875 18.492188 15.222656 18.363281 15.105469 " fill-opacity="1" fill-rule="nonzero"/><path fill="#ffffff" d="M 22.285156 15.390625 C 22.519531 15.40625 24.433594 15.503906 24.140625 16.046875 C 23.902344 16.488281 22.265625 15.640625 22.285156 15.390625 " fill-opacity="1" fill-rule="nonzero"/><path fill="#ffffff" d="M 21.757812 13.734375 C 21.992188 13.75 23.902344 13.847656 23.613281 14.390625 C 23.375 14.835938 21.734375 13.984375 21.757812 13.734375 " fill-opacity="1" fill-rule="nonzero"/><path fill="#ffffff" d="M 22.097656 16.871094 C 22.28125 16.839844 23.535156 16.566406 23.492188 17.023438 C 23.457031 17.40625 22.167969 16.992188 22.097656 16.871094 " fill-opacity="1" fill-rule="nonzero"/><path fill="#ffffff" d="M 20.523438 15.125 C 20.613281 15.113281 21.402344 15.027344 21.324219 15.273438 C 21.246094 15.511719 20.59375 15.179688 20.523438 15.125 " fill-opacity="1" fill-rule="nonzero"/><path fill="#ffffff" d="M 21.335938 16.03125 C 21.421875 16.019531 22.214844 15.933594 22.136719 16.179688 C 22.058594 16.417969 21.40625 16.085938 21.335938 16.03125 " fill-opacity="1" fill-rule="nonzero"/><path fill="#ffffff" d="M 23.589844 10.695312 C 23.707031 10.6875 25.007812 10.550781 24.777344 10.230469 C 24.5625 9.9375 23.640625 10.53125 23.589844 10.695312 " fill-opacity="1" fill-rule="nonzero"/><path fill="#ffffff" d="M 22.933594 9.707031 C 23.128906 9.582031 24.75 8.570312 24.226562 8.238281 C 23.800781 7.964844 22.792969 9.5 22.933594 9.707031 " fill-opacity="1" fill-rule="nonzero"/><path fill="#ffffff" d="M 22.039062 8.507812 C 22.214844 8.445312 23.445312 8.078125 23.179688 7.699219 C 22.960938 7.378906 22.042969 8.367188 22.039062 8.507812 " fill-opacity="1" fill-rule="nonzero"/><path fill="#ffffff" d="M 23.007812 10.3125 C 23.089844 10.277344 23.824219 9.972656 23.632812 9.796875 C 23.449219 9.625 23.042969 10.230469 23.007812 10.3125 " fill-opacity="1" fill-rule="nonzero"/><path fill="#ffffff" d="M 17.785156 12.914062 C 17.90625 12.902344 19.207031 12.769531 18.976562 12.449219 C 18.761719 12.15625 17.839844 12.75 17.785156 12.914062 " fill-opacity="1" fill-rule="nonzero"/><path fill="#ffffff" d="M 21.066406 10.769531 C 21.265625 10.644531 22.882812 9.632812 22.363281 9.300781 C 21.933594 9.027344 20.925781 10.558594 21.066406 10.769531 " fill-opacity="1" fill-rule="nonzero"/><path fill="#ffffff" d="M 21.425781 12.46875 C 21.621094 12.34375 23.242188 11.332031 22.71875 11 C 22.292969 10.726562 21.28125 12.257812 21.425781 12.46875 " fill-opacity="1" fill-rule="nonzero"/><path fill="#ffffff" d="M 20.171875 9.570312 C 20.347656 9.507812 21.578125 9.140625 21.3125 8.757812 C 21.09375 8.441406 20.175781 9.429688 20.171875 9.570312 " fill-opacity="1" fill-rule="nonzero"/><path fill="#ffffff" d="M 19.664062 11.851562 C 19.742188 11.816406 20.476562 11.511719 20.285156 11.335938 C 20.101562 11.164062 19.695312 11.769531 19.664062 11.851562 " fill-opacity="1" fill-rule="nonzero"/><path fill="#ffffff" d="M 19.921875 10.667969 C 20.003906 10.632812 20.738281 10.328125 20.546875 10.152344 C 20.363281 9.980469 19.957031 10.585938 19.921875 10.667969 " fill-opacity="1" fill-rule="nonzero"/><path fill="#ffffff" d="M 16.976562 5.960938 C 16.949219 5.847656 16.671875 4.582031 17.050781 4.699219 C 17.402344 4.808594 17.121094 5.859375 16.976562 5.960938 " fill-opacity="1" fill-rule="nonzero"/><path fill="#ffffff" d="M 18.132812 6.269531 C 18.191406 6.042969 18.652344 4.203125 19.136719 4.589844 C 19.53125 4.910156 18.375 6.335938 18.132812 6.269531 " fill-opacity="1" fill-rule="nonzero"/><path fill="#ffffff" d="M 19.5625 6.734375 C 19.566406 6.550781 19.535156 5.28125 19.980469 5.410156 C 20.355469 5.515625 19.699219 6.6875 19.5625 6.734375 " fill-opacity="1" fill-rule="nonzero"/><path fill="#ffffff" d="M 17.527344 6.386719 C 17.535156 6.300781 17.597656 5.515625 17.828125 5.640625 C 18.050781 5.757812 17.59375 6.332031 17.527344 6.386719 " fill-opacity="1" fill-rule="nonzero"/><path fill="#ffffff" d="M 16.664062 12.109375 C 16.640625 11.996094 16.363281 10.734375 16.738281 10.847656 C 17.089844 10.957031 16.808594 12.011719 16.664062 12.109375 " fill-opacity="1" fill-rule="nonzero"/><path fill="#ffffff" d="M 17.699219 8.355469 C 17.757812 8.132812 18.21875 6.292969 18.703125 6.679688 C 19.097656 6.996094 17.941406 8.425781 17.699219 8.355469 " fill-opacity="1" fill-rule="nonzero"/><path fill="#ffffff" d="M 15.957031 8.550781 C 16.015625 8.328125 16.476562 6.488281 16.960938 6.875 C 17.355469 7.191406 16.199219 8.621094 15.957031 8.550781 " fill-opacity="1" fill-rule="nonzero"/><path fill="#ffffff" d="M 19.128906 8.824219 C 19.132812 8.636719 19.101562 7.367188 19.546875 7.496094 C 19.921875 7.605469 19.261719 8.773438 19.128906 8.824219 " fill-opacity="1" fill-rule="nonzero"/><path fill="#ffffff" d="M 17.097656 10.015625 C 17.105469 9.929688 17.167969 9.144531 17.398438 9.265625 C 17.621094 9.386719 17.167969 9.960938 17.097656 10.015625 " fill-opacity="1" fill-rule="nonzero"/><path fill="#ffffff" d="M 18.152344 9.402344 C 18.160156 9.3125 18.222656 8.527344 18.449219 8.652344 C 18.675781 8.773438 18.21875 9.34375 18.152344 9.402344 " fill-opacity="1" fill-rule="nonzero"/><path fill="#d2dc59" d="M 28.984375 9.003906 C 28.539062 8.011719 27.980469 7.082031 27.324219 6.230469 C 24.703125 2.800781 20.496094 1.238281 15.863281 0.585938 C 20.496094 1.238281 24.703125 2.800781 27.324219 6.230469 C 27.980469 7.082031 28.539062 8.011719 28.984375 9.003906 M 15.863281 0.585938 C 15.851562 0.582031 15.84375 0.582031 15.835938 0.582031 C 15.84375 0.582031 15.855469 0.582031 15.863281 0.585938 M 15.832031 0.582031 C 15.828125 0.582031 15.828125 0.582031 15.828125 0.582031 C 15.828125 0.582031 15.828125 0.582031 15.832031 0.582031 " fill-opacity="1" fill-rule="nonzero"/><g clip-path="url(#7228772fcc)"><path fill="#569435" d="M 23.363281 26.941406 C 23.554688 26.582031 23.816406 26.085938 24.113281 25.480469 C 27.429688 23.042969 29.574219 19.167969 29.574219 14.808594 C 29.574219 7.429688 23.4375 1.449219 15.863281 1.449219 C 15.75 1.449219 15.636719 1.453125 15.523438 1.457031 C 14.945312 1.308594 14.355469 1.183594 13.757812 1.074219 C 14.386719 0.84375 15.050781 0.667969 15.75 0.574219 C 15.292969 0.511719 14.847656 0.484375 14.417969 0.484375 C 14.035156 0.484375 13.660156 0.507812 13.296875 0.550781 C 13.664062 0.503906 14.042969 0.480469 14.433594 0.480469 C 14.882812 0.480469 15.347656 0.511719 15.828125 0.582031 C 15.828125 0.582031 15.828125 0.582031 15.832031 0.582031 C 15.832031 0.582031 15.832031 0.582031 15.835938 0.582031 C 15.84375 0.582031 15.851562 0.582031 15.863281 0.585938 C 20.496094 1.238281 24.703125 2.800781 27.324219 6.230469 C 27.980469 7.082031 28.539062 8.011719 28.984375 9.003906 C 29.785156 10.777344 30.234375 12.738281 30.234375 14.808594 C 30.234375 19.941406 27.082031 23.886719 23.363281 26.941406 " fill-opacity="1" fill-rule="nonzero"/></g><path fill="#3c7933" d="M 24.113281 25.480469 C 24.257812 25.179688 24.410156 24.855469 24.566406 24.507812 C 27.265625 22.128906 28.96875 18.664062 28.96875 14.808594 C 28.96875 8.027344 23.714844 2.464844 17.015625 1.886719 C 16.527344 1.726562 16.03125 1.582031 15.523438 1.457031 C 15.636719 1.453125 15.75 1.449219 15.863281 1.449219 C 23.4375 1.449219 29.574219 7.429688 29.574219 14.808594 C 29.574219 19.167969 27.429688 23.042969 24.113281 25.480469 " fill-opacity="1" fill-rule="nonzero"/><path fill="#cdda47" d="M 24.566406 24.507812 C 25.234375 23.019531 25.96875 21.105469 26.425781 19.015625 C 28.132812 17.628906 28.703125 13.84375 26.585938 12.230469 C 26.53125 11.96875 26.472656 11.710938 26.402344 11.457031 C 26.535156 11.410156 26.613281 11.371094 26.621094 11.339844 C 27.109375 9.546875 25.699219 6.804688 23.597656 6.054688 C 21.894531 4.050781 19.609375 2.734375 17.015625 1.886719 C 23.714844 2.464844 28.96875 8.027344 28.96875 14.808594 C 28.96875 18.664062 27.265625 22.128906 24.566406 24.507812 " fill-opacity="1" fill-rule="nonzero"/><path fill="#9ebc22" d="M 26.425781 19.015625 C 26.703125 17.753906 26.878906 16.429688 26.878906 15.097656 C 26.878906 14.113281 26.777344 13.15625 26.585938 12.230469 C 28.703125 13.84375 28.132812 17.628906 26.425781 19.015625 " fill-opacity="1" fill-rule="nonzero"/><path fill="#9ebc22" d="M 26.402344 11.457031 C 25.917969 9.644531 25.082031 7.972656 23.972656 6.519531 C 23.851562 6.359375 23.726562 6.207031 23.597656 6.054688 C 25.699219 6.804688 27.109375 9.546875 26.621094 11.339844 C 26.613281 11.371094 26.535156 11.410156 26.402344 11.457031 " fill-opacity="1" fill-rule="nonzero"/><g clip-path="url(#e09389c056)"><path fill="#f8f9be" d="M 15.863281 29.03125 C 11.101562 29.03125 7.367188 26.789062 4.914062 23.316406 C 7.367188 26.789062 11.101562 29.03125 15.863281 29.03125 M 1.691406 13.625 C 1.691406 11.289062 2.480469 9.070312 3.722656 7.167969 C 2.480469 9.070312 1.691406 11.289062 1.691406 13.625 " fill-opacity="1" fill-rule="nonzero"/></g><g clip-path="url(#dbabc64e58)"><path fill="#98be29" d="M 15.863281 29.03125 C 11.101562 29.03125 7.367188 26.789062 4.914062 23.316406 C 3.28125 21.003906 2.214844 18.144531 1.789062 15.035156 C 1.785156 15.03125 1.785156 15.027344 1.785156 15.023438 C 1.773438 14.933594 1.761719 14.839844 1.753906 14.75 C 1.710938 14.371094 1.691406 13.996094 1.691406 13.625 C 1.691406 11.289062 2.480469 9.070312 3.722656 7.167969 C 4.464844 6.03125 5.367188 5.007812 6.359375 4.140625 C 8.324219 2.421875 10.507812 0.882812 13.296875 0.550781 C 12.832031 0.605469 12.382812 0.695312 11.949219 0.816406 C 12.136719 0.832031 12.320312 0.847656 12.507812 0.875 C 12.929688 0.933594 13.34375 1 13.757812 1.074219 C 13.046875 1.339844 12.375 1.675781 11.734375 2.066406 C 6.179688 3.773438 2.152344 8.832031 2.152344 14.808594 C 2.152344 21.199219 6.757812 26.539062 12.910156 27.855469 C 14.339844 28.507812 15.925781 28.90625 17.65625 29.007812 C 17.078125 29.03125 16.484375 29.03125 15.863281 29.03125 " fill-opacity="1" fill-rule="nonzero"/></g><path fill="#7ba726" d="M 12.910156 27.855469 C 6.757812 26.539062 2.152344 21.199219 2.152344 14.808594 C 2.152344 8.832031 6.179688 3.773438 11.734375 2.066406 C 11.234375 2.371094 10.753906 2.707031 10.292969 3.0625 C 5.839844 5.136719 2.757812 9.617188 2.757812 14.808594 C 2.757812 20.386719 6.316406 25.140625 11.304688 26.972656 C 11.816406 27.304688 12.351562 27.597656 12.910156 27.855469 " fill-opacity="1" fill-rule="nonzero"/><path fill="#fafbcc" d="M 11.304688 26.972656 C 6.316406 25.140625 2.757812 20.386719 2.757812 14.808594 C 2.757812 9.617188 5.839844 5.136719 10.292969 3.0625 C 9.84375 3.40625 9.40625 3.769531 8.984375 4.140625 C 7.816406 5.160156 6.773438 6.398438 5.972656 7.777344 C 5.101562 8.722656 4.503906 10.039062 4.578125 11.296875 C 4.398438 12.101562 4.304688 12.929688 4.316406 13.773438 C 3.285156 15.496094 3.707031 18.726562 5.703125 19.929688 C 5.953125 20.546875 6.234375 21.140625 6.542969 21.710938 C 6.761719 22.519531 7.3125 23.339844 8.042969 23.988281 C 8.976562 25.160156 10.066406 26.171875 11.304688 26.972656 " fill-opacity="1" fill-rule="nonzero"/><path fill="#dbdf18" d="M 4.578125 11.296875 C 4.503906 10.039062 5.101562 8.722656 5.972656 7.777344 C 5.335938 8.871094 4.851562 10.054688 4.578125 11.296875 " fill-opacity="1" fill-rule="nonzero"/><path fill="#dbdf18" d="M 5.703125 19.929688 C 3.707031 18.726562 3.285156 15.496094 4.316406 13.773438 C 4.324219 14.1875 4.355469 14.605469 4.410156 15.023438 C 4.648438 16.753906 5.082031 18.40625 5.703125 19.929688 " fill-opacity="1" fill-rule="nonzero"/><path fill="#dbdf18" d="M 8.042969 23.988281 C 7.3125 23.339844 6.761719 22.519531 6.542969 21.710938 C 6.984375 22.523438 7.488281 23.285156 8.042969 23.988281 " fill-opacity="1" fill-rule="nonzero"/><path fill="#8cb628" d="M 13.757812 1.074219 C 13.34375 1 12.929688 0.933594 12.507812 0.875 C 12.320312 0.847656 12.136719 0.832031 11.949219 0.816406 C 12.382812 0.695312 12.832031 0.605469 13.296875 0.550781 C 13.660156 0.507812 14.035156 0.484375 14.417969 0.484375 C 14.847656 0.484375 15.292969 0.511719 15.75 0.574219 C 15.050781 0.667969 14.386719 0.84375 13.757812 1.074219 " fill-opacity="1" fill-rule="nonzero"/><g fill="#000000" fill-opacity="1"><g transform="translate(31.245966, 19.224685)"><g><path d="M 1.390625 -9.3125 L 2.71875 -9.3125 L 2.71875 -1.15625 L 7.765625 -1.15625 L 7.765625 0 L 1.390625 0 Z M 1.390625 -9.3125 "/></g></g></g><g fill="#000000" fill-opacity="1"><g transform="translate(39.137214, 19.224685)"><g><path d="M 1.390625 -9.3125 L 2.71875 -9.3125 L 2.71875 0 L 1.390625 0 Z M 1.390625 -9.3125 "/></g></g></g><g fill="#000000" fill-opacity="1"><g transform="translate(43.255547, 19.224685)"><g><path d="M 10.03125 0 L 10.015625 -6.78125 L 6.640625 -1.125 L 6.03125 -1.125 L 2.671875 -6.734375 L 2.671875 0 L 1.390625 0 L 1.390625 -9.3125 L 2.484375 -9.3125 L 6.375 -2.765625 L 10.203125 -9.3125 L 11.28125 -9.3125 L 11.296875 0 Z M 10.03125 0 "/></g></g></g><g fill="#000000" fill-opacity="1"><g transform="translate(55.942654, 19.224685)"><g><path d="M 8.15625 -1.15625 L 8.15625 0 L 1.390625 0 L 1.390625 -9.3125 L 7.96875 -9.3125 L 7.96875 -8.15625 L 2.71875 -8.15625 L 2.71875 -5.296875 L 7.390625 -5.296875 L 7.390625 -4.15625 L 2.71875 -4.15625 L 2.71875 -1.15625 Z M 8.15625 -1.15625 "/></g></g></g><g fill="#007f3f" fill-opacity="1"><g transform="translate(64.846972, 19.224685)"><g><path d="M 7.328125 -2.328125 L 2.375 -2.328125 L 1.359375 0 L -0.015625 0 L 4.203125 -9.3125 L 5.515625 -9.3125 L 9.75 0 L 8.34375 0 Z M 6.859375 -3.390625 L 4.859375 -7.953125 L 2.84375 -3.390625 Z M 6.859375 -3.390625 "/></g></g></g><g fill="#007f3f" fill-opacity="1"><g transform="translate(74.571546, 19.224685)"><g><path d="M 1.390625 -9.3125 L 2.71875 -9.3125 L 2.71875 0 L 1.390625 0 Z M 1.390625 -9.3125 "/></g></g></g></svg>